<?xml version="1.0" encoding="UTF-8" standalone="no"?>
<!-- Uploaded to: SVG Repo, www.svgrepo.com, Generator: SVG Repo Mixer Tools -->

<svg
   width="800px"
   height="800px"
   viewBox="0 0 512 512"
   version="1.1"
   id="svg1"
   sodipodi:docname="autohide-off.svg"
   xml:space="preserve"
   inkscape:version="1.3 (0e150ed6c4, 2023-07-21)"
   xmlns:inkscape="http://www.inkscape.org/namespaces/inkscape"
   xmlns:sodipodi="http://sodipodi.sourceforge.net/DTD/sodipodi-0.dtd"
   xmlns="http://www.w3.org/2000/svg"
   xmlns:svg="http://www.w3.org/2000/svg"><defs
     id="defs1" /><sodipodi:namedview
     id="namedview1"
     pagecolor="#ffffff"
     bordercolor="#000000"
     borderopacity="0.25"
     inkscape:showpageshadow="2"
     inkscape:pageopacity="0.0"
     inkscape:pagecheckerboard="0"
     inkscape:deskcolor="#d1d1d1"
     inkscape:zoom="0.3790625"
     inkscape:cx="349.54658"
     inkscape:cy="51.442704"
     inkscape:window-width="3440"
     inkscape:window-height="1417"
     inkscape:window-x="-8"
     inkscape:window-y="-8"
     inkscape:window-maximized="1"
     inkscape:current-layer="svg1" /><title
     id="title1">surveillance</title><g
     id="Page-1"
     stroke="none"
     stroke-width="1"
     fill="none"
     fill-rule="evenodd"><g
       id="drop"
       fill="#000000"
       transform="translate(64.000000, 105.788405)"><path
         d="M44.1717837,-7.10542736e-14 L405.011659,98.4449647 L370.689,132.808 L394.489897,139.214538 L372.404005,221.640208 L301.059,202.523 L265.797494,237.829776 L177.65,213.627 L128.051615,299.534806 L128,299.510221 L128,299.544928 L42.6666667,299.531555 L42.6666667,342.211595 L3.62376795e-12,342.211595 L3.62376795e-12,214.211595 L42.6666667,214.211595 L42.6666667,256.864888 L103.402667,256.864888 L135.118,201.949 L3.12638804e-13,164.851341 L44.1717837,-7.10542736e-14 Z M74.286534,52.4390133 L52.1840777,134.926503 L253.136277,190.096636 L322.893293,120.245632 L74.286534,52.4390133 Z"
         id="Combined-Shape" /></g><path
       stroke-linecap="butt"
       fill="none"
       stroke-linejoin="miter"
       d="M 78.55482,62.675784 467.85929,451.98025"
       stroke="#ffffff"
       stroke-width="42.8114"
       stroke-opacity="1"
       stroke-miterlimit="4"
       id="path2-8" /><path
       stroke-linecap="butt"
       fill="none"
       stroke-linejoin="miter"
       d="M 63.422177,62.670713 446.26163,451.52374"
       stroke="#000000"
       stroke-width="31.1173"
       stroke-opacity="1"
       stroke-miterlimit="4"
       id="path3-6" /></g><g
     id="g1"
     transform="matrix(0.85333334,0,0,0.85333334,-566.08275,60.703232)"><path
       fill="#000000"
       d="m 77.214844,52.082031 c -7.488282,0 -13.933594,5.144531 -15.625,12.4375 L 37.109375,169.46484 c 13.347656,-4.03515 31.445313,-8.00781 51.238281,-8.00781 21.027344,0 40.234374,4.49219 53.906254,8.78906 6.89843,2.14844 12.5625,4.36328 16.53515,5.99219 2.01953,0.84375 3.58203,1.5625 4.75391,2.08203 0.58594,0.26172 1.03906,0.45703 1.36719,0.65235 l 0.39062,0.19531 0.12891,0.0625 h 0.0664 c 0,0 0,0 -4.10156,8.26953 l 4.10156,-8.26953 c 3.77344,1.89062 6.76953,4.7539 8.78907,8.26953 h 26.42968 c 2.01953,-3.44922 5.01563,-6.37891 8.78907,-8.26953 l 4.10156,8.26953 c -4.10156,-8.26953 -4.10156,-8.26953 -4.10156,-8.26953 h 0.0664 l 0.12891,-0.0625 0.39062,-0.19531 c 0.32813,-0.13282 0.78125,-0.39063 1.36719,-0.65235 1.17188,-0.51953 2.73438,-1.23828 4.75391,-2.08203 3.97265,-1.69531 9.63672,-3.84375 16.53515,-5.99219 13.67188,-4.29687 32.8125,-8.78906 53.90625,-8.78906 19.79297,0 37.89063,3.97266 51.23828,8.00781 L 313.41016,64.519531 c -1.69141,-7.292969 -8.20313,-12.4375 -15.625,-12.4375 -2.01563,0 -4.03516,0.390625 -5.98829,1.171875 l -20.3789,8.140625 c -8.00781,3.1875 -17.1211,-0.71875 -20.3125,-8.726562 -3.1875,-8.007813 0.71875,-17.121094 8.72656,-20.3125 l 20.375,-8.136719 c 5.60156,-2.214844 11.52344,-3.386719 17.57813,-3.386719 22.00781,0 41.08203,15.171875 46.09375,36.589844 l 28.58203,122.394535 c 1.10547,4.7539 1.88672,9.57031 2.27734,14.39062 0.19531,1.23438 0.32813,2.47266 0.32813,3.71094 v 41.66406 c 0,40.30078 -32.61719,72.91797 -72.91797,72.91797 h -28.90625 c -38.67188,0 -70.63672,-30.20703 -72.78516,-68.87891 l -0.84766,-14.45312 h -24.21875 l -0.78125,14.45312 C 172.46094,282.29297 140.49609,312.5 101.75781,312.5 H 72.917969 C 32.617188,312.5 0,279.88281 0,239.58203 v -41.66406 c 0,-1.23828 0.128906,-2.47656 0.324219,-3.71094 0.390625,-4.82031 1.171875,-9.63672 2.28125,-14.39062 L 31.183594,57.421875 c 4.949218,-21.417969 24.023437,-36.589844 46.03125,-36.589844 5.988281,0 11.976562,1.171875 17.578125,3.386719 l 20.375001,8.136719 c 8.00781,3.191406 11.91406,12.304687 8.72656,20.3125 -3.1914,8.007812 -12.30469,11.914062 -20.3125,8.726562 L 83.203125,53.253906 c -1.886719,-0.78125 -3.90625,-1.171875 -5.988281,-1.171875 z M 41.667969,211.84766 v 27.73437 c 0,17.25391 13.996093,31.25 31.25,31.25 h 28.839841 c 16.60157,0 30.27344,-12.95312 31.1836,-29.49219 l 1.6289,-29.6875 c -1.49609,-0.51953 -3.1914,-1.10547 -4.88281,-1.625 -11.19922,-3.51562 -25.97656,-6.83593 -41.40625,-6.83593 -15.429688,0 -30.078125,3.32031 -41.144531,6.83593 -2.019531,0.64844 -3.84375,1.23438 -5.535157,1.88672 z m 291.664061,27.73437 v -27.73437 c -1.69141,-0.58594 -3.57812,-1.23438 -5.53125,-1.88672 -11.07031,-3.51563 -25.71875,-6.83594 -41.14844,-6.83594 -15.42968,0 -30.20703,3.32031 -41.40625,6.83594 -1.75781,0.51953 -3.38281,1.10547 -4.88281,1.6289 l 1.62891,29.6875 c 0.91015,16.53516 14.64843,29.49219 31.18359,29.49219 h 28.90625 c 17.25391,0 31.25,-14 31.25,-31.25 z m 0,0"
       fill-opacity="1"
       fill-rule="nonzero"
       id="path1" /><path
       stroke-linecap="butt"
       transform="matrix(0.530638,0.530638,-0.53033,0.53033,49.165775,25.836328)"
       fill="none"
       stroke-linejoin="miter"
       d="M 0.00169897,21.998897 H 565.68314"
       stroke="#ffffff"
       stroke-width="44"
       stroke-opacity="1"
       stroke-miterlimit="4"
       id="path2" /><path
       stroke-linecap="butt"
       transform="matrix(0.525874,0.534133,-0.534446,0.526182,34.383774,29.081332)"
       fill="none"
       stroke-linejoin="miter"
       d="M -8.03142e-4,16.00035 561.32683,16.001049"
       stroke="#000000"
       stroke-width="32"
       stroke-opacity="1"
       stroke-miterlimit="4"
       id="path3" /></g></svg>
