<?xml version="1.0" encoding="iso-8859-1"?>
<!-- Uploaded to: SVG Repo, www.svgrepo.com, Generator: SVG Repo Mixer Tools -->
<!DOCTYPE svg PUBLIC "-//W3C//DTD SVG 1.1//EN" "http://www.w3.org/Graphics/SVG/1.1/DTD/svg11.dtd">
<svg fill="#000000" version="1.1" id="Capa_1" xmlns="http://www.w3.org/2000/svg" xmlns:xlink="http://www.w3.org/1999/xlink"
	 width="800px" height="800px" viewBox="0 0 478.666 478.666"
	 xml:space="preserve">
<g>
	<path d="M71.553,0v478.085l335.561,0.581V0H71.553z M103.109,446.583V31.558h272.445v56.813h-10.781V42.086H113.893v394.468
		h250.881V390.27h10.781v56.785L103.109,446.583z M364.773,137.459h10.781V341.18h-10.781V137.459z M165.787,239.32
		c0,9.148-7.418,16.566-16.568,16.566c-9.15,0-16.568-7.418-16.568-16.566c0-9.15,7.418-16.568,16.568-16.568
		C158.369,222.752,165.787,230.17,165.787,239.32z" opacity="0.5"/>

	<path d="m343.85724,214.58377l0,-46.75954l-0.0165,0c-0.0165,-57.7152 -46.79254,-104.49123 -104.50773,-104.49123
		s-104.50773,46.79254 -104.50773,104.50773l0,0l0,46.74304l-37.80032,0l0,200.74922l284.6161,0l0,-200.74922
		l-37.78382,0zm-176.0165,-46.74304c0,0 0,0 0,0c0,-39.43377 32.075,-71.50876 71.49226,-71.50876
		c39.45027,0 71.52526,32.075 71.52526,71.49226c0,0 0,0 0,0l0,46.75954l-143.01753,0l0,-46.74304z"/>
</g>
</svg>