<?xml version="1.0" encoding="iso-8859-1"?>
<!-- Uploaded to: SVG Repo, www.svgrepo.com, Generator: SVG Repo Mixer Tools -->
<svg height="800px" width="800px" version="1.1" id="Layer_1" xmlns="http://www.w3.org/2000/svg" xmlns:xlink="http://www.w3.org/1999/xlink" 
	 viewBox="0 0 504 504" xml:space="preserve">
<circle style="fill:#FFD05B;" cx="252" cy="252" r="252"/>
<polygon style="fill:#324A5E;" points="343.2,212.4 301.6,121.6 252,212.4 198.4,121.6 160.8,212.4 94.4,121.6 115.2,364.8 
	388.8,364.8 409.6,121.6 "/>
<path style="fill:#2B3B4E;" d="M252,348c-75.6,0-136.8,7.6-136.8,17.2l0,0l0,0v0.4c2,9.2,62.4,16.4,136.8,16.4s134.8-7.2,136.8-16.4
	v-0.4l0,0l0,0C388.8,355.6,327.6,348,252,348z"/>
<path style="fill:#FF7058;" d="M252,235.6c9.6-11.6,22.4-14,31.6-10.4c22.8,8.4,28,40.8,8.4,61.2C252,328,252,328,252,328
	s0,0-40.4-42c-19.6-20.4-14-52.4,8.4-61.2C229.6,221.6,242.4,224.4,252,235.6z"/>
</svg>