<?xml version="1.0" encoding="iso-8859-1"?>
<!-- Uploaded to: SVG Repo, www.svgrepo.com, Generator: SVG Repo Mixer Tools -->
<!DOCTYPE svg PUBLIC "-//W3C//DTD SVG 1.1//EN" "http://www.w3.org/Graphics/SVG/1.1/DTD/svg11.dtd">
<svg fill="#000000" version="1.1" id="Capa_1" xmlns="http://www.w3.org/2000/svg" xmlns:xlink="http://www.w3.org/1999/xlink"
	 width="800px" height="800px" viewBox="0 0 478.666 478.666"
	 xml:space="preserve">
<g>
	<path d="M71.553,0v478.085l335.561,0.581V0H71.553z M103.109,446.583V31.558h272.445v56.813h-10.781V42.086H113.893v394.468
		h250.881V390.27h10.781v56.785L103.109,446.583z M364.773,137.459h10.781V341.18h-10.781V137.459z M165.787,239.32
		c0,9.148-7.418,16.566-16.568,16.566c-9.15,0-16.568-7.418-16.568-16.566c0-9.15,7.418-16.568,16.568-16.568
		C158.369,222.752,165.787,230.17,165.787,239.32z" opacity="0.5"/>

	<path d="m312.05425,214.51347l-36.55091,0l0,-46.87583c0,0 0,0 0,-0.01655c0,-39.52925 32.18267,-71.69537 71.71193,-71.69537
		c39.56235,0 71.72848,32.16612 71.72848,71.69537c0,0 0,0 0,0l0,46.89238l33.09272,0l0,-46.89238l-0.01655,0
		c-0.01655,-57.87916 -46.92548,-104.78808 -104.80465,-104.78808s-104.80465,46.92547 -104.80465,104.80463l0,46.87583
		l-215.78109,0l0,201.31953l285.42473,0l0,-201.31953z"/>
</g>
</svg>